<svg version="1.1" id="Layer_1" xmlns="http://www.w3.org/2000/svg" xmlns:xlink="http://www.w3.org/1999/xlink" x="0px" y="0px"
	 width="100%" viewBox="0 0 512 512" enable-background="new 0 0 512 512" xml:space="preserve">
<path fill="#31A0E8" opacity="1.000000" stroke="none" 
	d="
M512.640869,486.651428 
	C513.000000,494.827240 512.906494,502.656372 513.062073,510.480530 
	C513.103943,512.585022 512.703247,513.455994 510.518188,513.019653 
	C509.877594,512.891785 509.189819,513.000000 508.523682,513.000000 
	C340.820618,513.000000 173.117523,512.982727 5.414554,513.106140 
	C1.481895,513.109009 0.744664,512.034363 0.910086,508.417328 
	C1.221715,501.603546 1.000000,494.765350 1.000000,487.468658 
	C2.343092,485.247009 4.241871,484.819122 6.307740,484.716675 
	C8.806016,484.592896 11.304778,484.591553 13.803935,484.591461 
	C175.934265,484.586945 338.064575,484.578033 500.194885,484.642365 
	C504.245483,484.643982 508.557159,483.584229 512.640869,486.651428 
z"/>
<path fill="#1058B2" opacity="1.000000" stroke="none" 
	d="
M1.359515,54.348900 
	C1.000000,45.979099 1.000000,37.958199 1.000000,29.468649 
	C2.343080,27.246986 4.241886,26.819132 6.307747,26.716719 
	C8.806023,26.592871 11.304787,26.591520 13.803943,26.591450 
	C175.934280,26.586885 338.064636,26.577955 500.194946,26.642347 
	C504.245544,26.643955 508.557220,25.584246 512.640869,28.651463 
	C513.000000,37.020901 513.000000,45.041798 513.000000,53.531349 
	C511.656921,55.753036 509.758118,56.180862 507.692230,56.283276 
	C505.194000,56.407127 502.695221,56.408478 500.196075,56.408550 
	C338.065765,56.413113 175.935455,56.422062 13.805173,56.357613 
	C9.754889,56.356003 5.443449,57.416183 1.359515,54.348900 
z"/>
<path fill="#1564BB" opacity="1.000000" stroke="none" 
	d="
M512.640869,109.651459 
	C513.000000,116.021149 513.000000,122.042297 513.000000,128.531723 
	C510.487335,132.034042 506.959198,131.351074 503.729736,131.359802 
	C472.512115,131.444229 441.294250,131.416962 410.076508,131.389740 
	C403.611298,131.384109 397.188141,131.802246 390.468719,132.991821 
	C387.609314,135.598389 385.175842,134.129593 382.768158,133.055649 
	C362.704987,124.106659 342.079651,122.956154 320.959442,128.553238 
	C314.987396,130.135895 309.440491,132.801956 303.843506,135.325943 
	C302.157562,136.086212 300.586914,137.032974 298.236633,136.102875 
	C294.732788,134.333557 291.403625,134.371185 288.058350,134.373810 
	C196.131912,134.445877 104.205475,134.409897 12.279072,134.358673 
	C8.721159,134.356689 4.898865,135.278595 1.351398,132.341492 
	C1.000000,124.979050 1.000000,117.958107 1.000000,110.468582 
	C2.343081,108.246986 4.241885,107.819138 6.307746,107.716713 
	C8.806022,107.592873 11.304785,107.591522 13.803942,107.591454 
	C175.934280,107.586906 338.064636,107.577957 500.194946,107.642349 
	C504.245544,107.643959 508.557220,106.584236 512.640869,109.651459 
z"/>
<path fill="#309CE6" opacity="1.000000" stroke="none" 
	d="
M513.000000,486.531616 
	C342.645782,487.000000 172.291550,487.000000 1.468657,487.000000 
	C1.000000,480.645599 1.000000,474.291199 1.000000,467.468384 
	C2.343092,465.247009 4.241871,464.819122 6.307741,464.716705 
	C8.806016,464.592896 11.304778,464.591553 13.803935,464.591461 
	C175.934265,464.586945 338.064575,464.578033 500.194885,464.642365 
	C504.245483,464.643982 508.557159,463.584229 512.640869,466.651428 
	C513.000000,473.354401 513.000000,479.708801 513.000000,486.531616 
z"/>
<path fill="#0E53B0" opacity="1.000000" stroke="none" 
	d="
M1.359581,20.348963 
	C1.000000,14.337858 1.083219,8.673745 0.949193,3.014778 
	C0.909084,1.321251 1.197916,0.631894 2.988196,0.974018 
	C3.791527,1.127535 4.648567,1.000000 5.481235,1.000000 
	C173.180557,1.000000 340.879883,1.017093 508.579102,0.894733 
	C512.497803,0.891874 513.359802,1.941234 513.081543,5.578229 
	C512.739563,10.048487 513.000000,14.564830 513.000000,19.530624 
	C511.656921,21.753023 509.758148,22.180862 507.692261,22.283279 
	C505.194000,22.407133 502.695221,22.408476 500.196075,22.408546 
	C338.066071,22.413115 175.936050,22.422045 13.806067,22.357613 
	C9.755543,22.356003 5.443891,23.416166 1.359581,20.348963 
z"/>
<path fill="#125DB6" opacity="1.000000" stroke="none" 
	d="
M1.359565,81.348946 
	C1.000000,75.311958 1.000000,69.623917 1.000000,63.467941 
	C2.343083,61.246994 4.241880,60.819122 6.307747,60.716713 
	C8.806023,60.592869 11.304786,60.591522 13.803943,60.591450 
	C175.934280,60.586884 338.064636,60.577953 500.194946,60.642349 
	C504.245544,60.643955 508.557220,59.584240 512.640869,62.651466 
	C513.000000,68.688042 513.000000,74.376083 513.000000,80.532059 
	C511.656921,82.753021 509.758148,83.180870 507.692261,83.283287 
	C505.194000,83.407135 502.695221,83.408470 500.196075,83.408546 
	C338.066010,83.413101 175.935928,83.422043 13.805886,83.357628 
	C9.755406,83.356018 5.443797,84.416153 1.359565,81.348946 
z"/>
<path fill="#2E96E2" opacity="1.000000" stroke="none" 
	d="
M1.359586,444.348969 
	C1.000000,438.311951 1.000000,432.623932 1.000000,426.467957 
	C2.343092,424.247009 4.241871,423.819122 6.307740,423.716675 
	C8.806016,423.592896 11.304778,423.591553 13.803935,423.591461 
	C175.934265,423.586945 338.064575,423.578033 500.194885,423.642365 
	C504.245483,423.643982 508.557159,422.584229 512.640869,425.651428 
	C513.000000,431.688049 513.000000,437.376068 513.000000,443.532043 
	C511.656952,445.753052 509.758148,446.180878 507.692261,446.283325 
	C505.194031,446.407135 502.695251,446.408447 500.196106,446.408539 
	C338.066101,446.413025 175.936111,446.421967 13.806137,446.357574 
	C9.755595,446.355957 5.443926,447.416168 1.359586,444.348969 
z"/>
<path fill="#1360B8" opacity="1.000000" stroke="none" 
	d="
M1.000000,81.466118 
	C171.354233,81.000000 341.708466,81.000000 512.531372,81.000000 
	C513.000000,85.689255 513.000000,90.378510 513.000000,95.533882 
	C511.656921,97.753021 509.758148,98.180870 507.692261,98.283287 
	C505.194000,98.407135 502.695221,98.408470 500.196075,98.408546 
	C338.066010,98.413101 175.935928,98.422043 13.805886,98.357628 
	C9.755406,98.356018 5.443797,99.416153 1.359565,96.348946 
	C1.000000,91.310745 1.000000,86.621490 1.000000,81.466118 
z"/>
<path fill="#1461B9" opacity="1.000000" stroke="none" 
	d="
M1.000000,96.464645 
	C171.354233,96.000000 341.708466,96.000000 512.531372,96.000000 
	C513.000000,100.356903 513.000000,104.713799 513.000000,109.535355 
	C342.645782,109.999947 172.291550,109.999901 1.468657,109.999924 
	C1.000000,105.643097 1.000000,101.286201 1.000000,96.464645 
z"/>
<path fill="#2E98E3" opacity="1.000000" stroke="none" 
	d="
M1.000000,444.464661 
	C171.354233,444.000000 341.708466,444.000000 512.531372,444.000000 
	C513.000000,448.356903 513.000000,452.713806 513.000000,457.535339 
	C511.656952,459.753052 509.758148,460.180878 507.692261,460.283264 
	C505.194031,460.407135 502.695251,460.408447 500.196106,460.408539 
	C338.066101,460.413025 175.936111,460.421967 13.806137,460.357574 
	C9.755595,460.355957 5.443926,461.416168 1.359586,458.348969 
	C1.000000,453.643097 1.000000,449.286194 1.000000,444.464661 
z"/>
<path fill="#2B90DE" opacity="1.000000" stroke="none" 
	d="
M1.359586,406.348969 
	C1.000000,401.975464 1.000000,397.950897 1.000000,393.463196 
	C3.358039,390.083862 6.717104,390.654694 9.801629,390.640381 
	C31.954100,390.537506 54.107819,390.714020 76.259491,390.552948 
	C93.071892,390.430664 109.939423,389.770966 126.689087,390.236603 
	C185.143372,391.861450 243.591629,390.345764 302.035919,391.020477 
	C315.819824,391.179565 329.592712,389.751862 343.333160,390.186768 
	C359.323792,390.692932 375.299347,390.489960 391.279022,390.548065 
	C428.421906,390.683167 465.565704,390.555237 502.708923,390.640442 
	C505.945282,390.647858 509.431305,389.865967 512.644958,392.655151 
	C513.000000,397.024536 513.000000,401.049103 513.000000,405.536804 
	C511.656952,407.753052 509.758148,408.180878 507.692261,408.283295 
	C505.194031,408.407135 502.695251,408.408447 500.196106,408.408539 
	C338.066101,408.413025 175.936111,408.421967 13.806137,408.357574 
	C9.755595,408.355957 5.443926,409.416168 1.359586,406.348969 
z"/>
<path fill="#1B6FC5" opacity="1.000000" stroke="none" 
	d="
M1.349258,211.339523 
	C1.000000,197.979111 1.000000,184.958206 1.000000,171.468658 
	C2.890663,168.533081 5.660841,168.691193 8.303473,168.650726 
	C17.297342,168.513016 26.292583,168.592545 35.287247,168.593292 
	C77.096268,168.596756 118.905312,168.558472 160.714294,168.620667 
	C164.857758,168.626831 169.143677,168.304626 172.586151,172.185272 
	C174.043671,176.428345 171.666168,178.496948 168.816864,180.087631 
	C158.027588,186.110962 150.901978,195.906876 142.995209,204.906662 
	C142.318436,205.676987 141.962875,206.582260 141.636627,207.954758 
	C139.606064,210.793564 138.562408,214.293015 134.088715,214.222900 
	C129.681671,213.351776 125.681175,213.412125 121.683983,213.411163 
	C84.880592,213.402359 48.077141,213.445053 11.273910,213.359528 
	C8.037553,213.351990 4.552168,214.132095 1.349258,211.339523 
z"/>
<path fill="#1767BE" opacity="1.000000" stroke="none" 
	d="
M1.000000,132.468414 
	C94.979836,131.999802 188.959671,132.002075 282.939514,131.988647 
	C286.095123,131.988205 289.286163,132.312607 292.383331,131.400345 
	C295.486938,130.486176 296.878418,132.826721 298.812531,134.858673 
	C299.788971,137.131821 298.537292,138.494293 297.130096,139.212067 
	C293.726501,140.948105 290.969604,143.553772 287.485474,145.736252 
	C285.105225,146.120010 283.290588,146.677277 282.867371,149.465240 
	C282.443756,150.668854 281.887054,151.400894 281.070404,152.367615 
	C280.361755,153.090256 279.834595,153.499863 279.010925,154.052643 
	C278.555389,154.336411 278.372345,154.447220 277.936646,154.753143 
	C277.196625,155.423874 276.823761,155.977585 276.417938,156.966232 
	C275.093506,159.077652 273.494751,160.158173 270.895599,160.382858 
	C269.940796,160.324173 269.357239,160.389740 268.996124,160.048386 
	C262.549652,153.954910 254.563736,154.354080 246.505554,154.362030 
	C168.426956,154.439026 90.348244,154.429565 12.269634,154.358353 
	C8.712852,154.355118 4.891593,155.278885 1.349295,152.339569 
	C1.000000,145.645599 1.000000,139.291214 1.000000,132.468414 
z"/>
<path fill="#2A8FDD" opacity="1.000000" stroke="none" 
	d="
M513.000000,392.533142 
	C342.645782,393.000000 172.291550,393.000000 1.468657,393.000000 
	C1.000000,387.311951 1.000000,381.623932 1.000000,375.467957 
	C2.596580,372.882477 4.936167,372.690948 7.282328,372.679291 
	C36.671249,372.532928 66.060280,372.538391 95.449310,372.665070 
	C97.620735,372.674438 99.698311,373.435333 102.343613,373.435638 
	C103.438797,373.424744 104.059692,373.423706 105.125618,373.528259 
	C106.969162,374.092377 108.228470,374.828979 109.785568,375.940399 
	C122.372917,383.277374 135.456161,386.710205 149.671036,386.665710 
	C202.088913,386.501648 254.508972,386.390167 306.925232,386.724060 
	C323.400757,386.828949 339.012909,384.183624 354.255432,376.971741 
	C357.049744,375.814240 360.118713,377.842102 362.378174,374.914825 
	C362.722931,374.392151 362.866547,374.181915 363.307007,373.721069 
	C364.225159,372.953857 364.783539,372.359619 365.896240,371.801819 
	C366.600372,371.635193 366.895172,371.611023 367.641418,371.596252 
	C378.847565,375.424591 390.028076,374.579468 401.123474,374.587982 
	C435.174438,374.614105 469.225464,374.561005 503.276276,374.643158 
	C506.344574,374.650574 509.653412,373.947052 512.660156,376.669189 
	C513.000000,382.022095 513.000000,387.044189 513.000000,392.533142 
z"/>
<path fill="#2D94E0" opacity="1.000000" stroke="none" 
	d="
M513.000000,425.541931 
	C342.645782,426.000000 172.291550,426.000000 1.468657,426.000000 
	C1.000000,422.638702 1.000000,419.277435 1.000000,415.458069 
	C2.343092,413.247009 4.241871,412.819122 6.307741,412.716705 
	C8.806016,412.592896 11.304778,412.591553 13.803935,412.591461 
	C175.934265,412.586945 338.064575,412.578033 500.194885,412.642365 
	C504.245483,412.643982 508.557159,411.584229 512.640869,414.651428 
	C513.000000,418.361298 513.000000,421.722565 513.000000,425.541931 
z"/>
<path fill="#1E75C9" opacity="1.000000" stroke="none" 
	d="
M1.000000,211.468658 
	C42.847073,210.999847 84.694145,211.002731 126.541214,210.992798 
	C129.374298,210.992111 132.219589,210.837448 134.992584,212.927460 
	C137.220917,215.102264 135.941818,217.102737 135.330933,219.051468 
	C133.981750,223.355499 131.668213,227.308929 130.698578,232.151978 
	C129.004044,239.169998 127.385315,245.803802 126.294098,252.987640 
	C122.827591,258.150177 116.296989,260.744812 110.498215,259.180054 
	C108.892754,256.546509 110.136284,254.743271 111.657173,252.671326 
	C108.805725,252.318527 106.179321,252.410110 103.565201,252.408325 
	C72.413162,252.387131 41.261055,252.436569 10.109175,252.352341 
	C7.204021,252.344498 4.029666,253.071686 1.296332,250.289505 
	C1.000000,237.312439 1.000000,224.624878 1.000000,211.468658 
z"/>
<path fill="#196BC1" opacity="1.000000" stroke="none" 
	d="
M1.000000,152.468277 
	C83.612709,151.999802 166.225540,152.064285 248.837921,151.900925 
	C257.251587,151.884277 265.305481,151.676361 271.658630,158.907059 
	C272.849243,159.716492 273.343323,160.878769 272.798218,161.663116 
	C269.124451,166.949249 267.738617,173.666382 262.214111,178.196396 
	C259.713013,179.061478 257.978210,177.992630 256.187378,177.109116 
	C230.619522,164.495239 204.768661,163.940628 178.630325,175.279938 
	C176.646576,176.140518 174.603714,177.017349 172.238983,175.252213 
	C169.783356,170.755417 165.805344,171.014145 161.993652,171.012756 
	C113.295303,170.994965 64.596954,171.000793 15.898609,171.000610 
	C11.244844,171.000595 6.591080,171.000458 1.468657,171.000183 
	C1.000000,164.978851 1.000000,158.957703 1.000000,152.468277 
z"/>
<path fill="#2F9AE5" opacity="1.000000" stroke="none" 
	d="
M1.000000,458.449738 
	C171.358231,458.000000 341.716461,458.000000 512.537354,458.000000 
	C513.000000,460.700165 513.000000,463.400360 513.000000,466.550262 
	C342.641754,467.000000 172.283524,467.000000 1.462638,467.000000 
	C1.000000,464.299835 1.000000,461.599640 1.000000,458.449738 
z"/>
<path fill="#2C92DF" opacity="1.000000" stroke="none" 
	d="
M513.000000,414.550262 
	C342.641754,415.000000 172.283524,415.000000 1.462638,415.000000 
	C1.000000,412.299835 1.000000,409.599640 1.000000,406.449738 
	C171.358231,406.000000 341.716461,406.000000 512.537354,406.000000 
	C513.000000,408.700165 513.000000,411.400360 513.000000,414.550262 
z"/>
<path fill="#105BB4" opacity="1.000000" stroke="none" 
	d="
M513.000000,62.550262 
	C342.641754,63.000000 172.283524,63.000000 1.462638,63.000000 
	C1.000000,60.299824 1.000000,57.599648 1.000000,54.449738 
	C171.358231,53.999962 341.716461,53.999920 512.537354,53.999939 
	C513.000000,56.700176 513.000000,59.400352 513.000000,62.550262 
z"/>
<path fill="#0F56B1" opacity="1.000000" stroke="none" 
	d="
M1.000000,20.449736 
	C171.358231,19.999985 341.716461,19.999969 512.537354,19.999977 
	C513.000000,22.700176 513.000000,25.400352 513.000000,28.550264 
	C342.641754,29.000013 172.283524,29.000025 1.462638,29.000019 
	C1.000000,26.299824 1.000000,23.599648 1.000000,20.449736 
z"/>
<path fill="#288BD9" opacity="1.000000" stroke="none" 
	d="
M513.000000,376.531342 
	C473.744843,377.000000 434.489685,377.022919 395.234589,376.983673 
	C385.537903,376.973999 375.640900,378.191132 366.282959,372.943542 
	C365.361938,367.288696 370.779449,366.142975 373.718262,362.716614 
	C377.301544,359.432190 379.400726,355.395966 382.433533,352.117096 
	C384.203949,350.203003 385.501129,347.675415 388.871613,347.067627 
	C393.324280,345.176270 397.580444,344.616699 401.945221,344.611725 
	C436.041351,344.572937 470.137482,344.563477 504.233490,344.643707 
	C506.986481,344.650177 509.956085,344.124268 512.650146,346.659912 
	C513.000000,356.687561 513.000000,366.375122 513.000000,376.531342 
z"/>
<path fill="#2381D1" opacity="1.000000" stroke="none" 
	d="
M512.654419,278.663879 
	C513.000000,290.687561 513.000000,302.375122 513.000000,314.531342 
	C510.489441,318.046753 506.950500,317.349548 503.725464,317.359680 
	C473.658173,317.454163 443.590515,317.431000 413.523132,317.378632 
	C409.069824,317.370880 404.546936,317.990234 399.724060,316.342407 
	C398.707916,315.859741 398.246155,315.441071 397.713196,314.489410 
	C396.744843,308.203125 397.585693,302.227783 396.376740,295.963715 
	C396.324097,293.885284 395.498230,292.318237 395.894470,290.232361 
	C400.365753,285.390839 405.479736,281.814301 409.954956,277.512329 
	C411.258301,276.259460 412.747314,275.201599 415.184570,275.421936 
	C444.637909,277.999542 473.716675,275.897308 502.755432,276.632019 
	C505.990906,276.713898 509.465057,275.870880 512.654419,278.663879 
z"/>
<path fill="#2686D5" opacity="1.000000" stroke="none" 
	d="
M398.844849,315.100647 
	C436.852295,314.996338 474.457489,314.998169 512.531372,315.000000 
	C513.000000,325.354218 513.000000,335.708466 513.000000,346.531342 
	C477.727905,347.000000 442.455597,347.055939 407.183838,346.948486 
	C400.819824,346.929108 394.582977,347.553894 387.945984,348.832306 
	C385.563049,346.029846 387.528992,343.933441 389.090027,341.393555 
	C391.771515,334.741547 392.478485,327.821594 395.857452,321.386292 
	C396.103821,318.780029 396.419891,316.624817 398.844849,315.100647 
z"/>
<path fill="#207BCD" opacity="1.000000" stroke="none" 
	d="
M513.000000,278.531342 
	C485.547394,279.000000 458.094696,278.968018 430.642212,279.026947 
	C425.141907,279.038727 419.676758,279.122467 414.056335,276.916870 
	C412.330200,274.487518 413.722992,272.819946 415.103607,271.110748 
	C421.258667,263.490631 426.270294,255.190689 429.952362,246.097595 
	C430.833374,243.921799 431.867096,241.830353 435.000275,241.313217 
	C437.703857,240.590027 440.038330,240.610291 442.365051,240.607071 
	C462.820251,240.578812 483.275574,240.545883 503.730438,240.641968 
	C506.642639,240.655640 509.783417,240.033783 512.648193,242.658173 
	C513.000000,254.687561 513.000000,266.375122 513.000000,278.531342 
z"/>
<path fill="#288BD9" opacity="1.000000" stroke="none" 
	d="
M104.327454,374.610199 
	C70.105446,374.960663 36.021381,374.980347 1.468657,375.000000 
	C1.000000,363.979095 1.000000,352.958221 1.000000,341.468658 
	C2.338130,339.260681 4.222513,338.748840 6.281987,338.731567 
	C29.336363,338.538116 52.390831,338.417969 75.444618,338.796143 
	C76.274048,338.809753 77.085045,339.027435 78.338020,339.354004 
	C79.381989,339.515686 79.963539,339.623169 80.915665,339.937561 
	C86.146355,346.468170 88.910843,354.097717 93.926399,360.776550 
	C96.540001,364.578552 99.253532,367.815094 102.514267,370.563293 
	C103.688263,371.552795 104.592468,372.631653 104.327454,374.610199 
z"/>
<path fill="#196BC1" opacity="1.000000" stroke="none" 
	d="
M512.653503,143.663025 
	C513.000000,153.354233 513.000000,162.708450 513.000000,172.531342 
	C510.650116,175.897369 507.311859,175.346786 504.232239,175.360916 
	C483.651306,175.455200 463.070007,175.387253 442.488831,175.413315 
	C439.171265,175.417526 435.845367,175.325958 432.139740,176.050308 
	C428.707550,177.623352 427.088623,175.920776 425.664581,173.573898 
	C422.473450,168.314850 419.491486,162.910538 415.051208,158.016083 
	C412.622528,154.300812 408.295837,152.098434 408.969910,146.737228 
	C409.711548,144.352707 411.147247,143.473877 413.028687,142.879257 
	C416.254852,141.859634 419.535858,141.609238 422.878357,141.606384 
	C449.832367,141.583344 476.786499,141.563477 503.740295,141.644104 
	C506.654327,141.652832 509.796326,141.034729 512.653503,143.663025 
z"/>
<path fill="#1E75C9" opacity="1.000000" stroke="none" 
	d="
M513.000000,242.531342 
	C486.845306,242.969666 460.690613,242.939316 434.039337,242.879852 
	C433.156006,242.418594 432.868896,241.928131 432.591278,240.959625 
	C433.353027,231.764053 434.894928,223.080063 436.001709,213.885590 
	C436.009003,212.183670 435.908722,210.919601 436.783936,209.347427 
	C439.692413,205.644028 443.398834,204.769989 447.301727,204.722229 
	C467.105225,204.479843 486.910034,204.540634 506.714050,204.694489 
	C508.675934,204.709717 510.763733,204.644440 512.646484,206.656586 
	C513.000000,218.687561 513.000000,230.375122 513.000000,242.531342 
z"/>
<path fill="#1B6FC5" opacity="1.000000" stroke="none" 
	d="
M513.000000,206.531342 
	C492.047516,207.000229 471.094971,207.024719 450.142578,206.979706 
	C446.073975,206.970978 442.186096,207.441391 438.370361,209.869812 
	C435.347931,209.424973 434.929382,207.318039 434.776947,205.096329 
	C434.390137,199.458969 432.985504,194.024963 431.490356,188.190308 
	C430.826233,184.183929 427.742004,181.059067 429.600525,176.720612 
	C431.117859,172.599960 434.359467,173.021103 437.308502,173.017761 
	C462.226532,172.989487 487.144623,173.000671 512.531372,173.000000 
	C513.000000,184.020889 513.000000,195.041794 513.000000,206.531342 
z"/>
<path fill="#2584D4" opacity="1.000000" stroke="none" 
	d="
M80.842300,340.653748 
	C54.360855,341.000549 28.149084,341.000275 1.468657,341.000000 
	C1.000000,329.645782 1.000000,318.291534 1.000000,306.468658 
	C3.184981,303.236420 6.336815,303.660187 9.260182,303.642303 
	C27.496355,303.530731 45.733696,303.522003 63.969151,303.650604 
	C68.434540,303.682098 72.860550,302.583313 77.762337,303.587158 
	C81.096138,306.686493 80.221207,310.219238 79.852623,313.616150 
	C79.639809,315.577454 79.294449,317.532196 78.942032,319.935608 
	C79.267357,325.312347 79.676895,330.210358 80.968010,335.005188 
	C81.428093,336.713837 81.956581,338.518250 80.842300,340.653748 
z"/>
<path fill="#2381D1" opacity="1.000000" stroke="none" 
	d="
M78.767303,305.149658 
	C52.913734,307.010406 27.414322,305.528748 1.468657,306.000000 
	C1.000000,295.645782 1.000000,285.291534 1.000000,274.468658 
	C2.601473,271.876160 4.948649,271.690887 7.299946,271.679108 
	C33.600487,271.547241 59.901230,271.497650 86.201492,271.713989 
	C88.176361,271.730255 90.235336,271.759186 92.148102,273.625641 
	C94.232147,276.618652 91.919525,278.371521 90.975990,280.831787 
	C89.355721,287.941345 84.290176,293.035431 82.450157,299.612854 
	C82.184799,300.561401 81.697174,301.445190 81.420059,302.798462 
	C80.995636,304.256927 80.258919,304.913757 78.767303,305.149658 
z"/>
<path fill="#207BCD" opacity="1.000000" stroke="none" 
	d="
M92.309158,276.189819 
	C90.267662,273.486450 87.614090,274.018799 85.179352,274.016663 
	C57.432022,273.992523 29.684666,274.000885 1.468657,274.000305 
	C1.000000,266.312408 1.000000,258.624847 1.000000,250.468628 
	C35.764015,249.999405 70.528221,250.052795 105.291801,249.929306 
	C109.589279,249.914032 113.847870,251.268936 118.179359,250.145889 
	C119.197243,249.881973 120.813965,249.712448 121.026314,251.279572 
	C121.213501,252.661041 119.777634,253.124969 118.701431,253.469910 
	C117.443352,253.873154 116.107018,254.027985 114.810127,254.315353 
	C112.438362,254.840897 110.884377,256.077454 111.017700,259.170380 
	C111.414665,261.497833 110.307205,262.669220 108.991776,263.751007 
	C104.571899,267.385895 99.796814,270.614014 96.166504,275.150238 
	C95.305809,276.225708 94.037209,276.650665 92.309158,276.189819 
z"/>
<path fill="#1767BE" opacity="1.000000" stroke="none" 
	d="
M513.000000,143.533875 
	C482.643494,144.000351 452.287018,144.000305 421.930511,144.001465 
	C417.650696,144.001633 413.530243,144.523285 410.062836,147.920807 
	C407.681091,149.432709 406.070587,147.864532 404.515228,146.796722 
	C400.032257,143.719025 395.988617,140.040451 391.385315,137.108643 
	C390.167816,136.333237 388.823059,135.483597 388.853882,133.392029 
	C389.118530,130.795258 389.876495,129.220520 392.531433,129.216721 
	C432.375214,129.159622 472.218933,129.076782 512.531372,129.000000 
	C513.000000,133.689255 513.000000,138.378510 513.000000,143.533875 
z"/>
<path fill="#F6C946" opacity="1.000000" stroke="none" 
	d="
M388.623962,132.992859 
	C396.285004,137.275742 403.066589,142.219559 409.603088,148.072372 
	C412.035645,150.654984 414.153381,153.092392 416.412506,155.812622 
	C417.055176,159.528137 415.418304,161.299774 412.112488,160.958679 
	C401.487366,159.862396 390.895508,161.636017 380.250763,161.044556 
	C372.690063,160.624435 364.989929,159.183151 357.446167,161.305908 
	C349.621918,163.507584 341.876343,161.222885 334.162567,160.769135 
	C326.334717,160.308701 318.602966,161.256546 310.813416,161.018265 
	C306.522766,160.887024 302.189697,161.563644 297.883453,160.810669 
	C293.214142,159.994217 288.602386,160.778748 283.953918,161.127808 
	C280.467987,161.389526 276.571442,161.587448 276.328308,155.886017 
	C276.183899,154.853531 276.285431,154.285980 276.859375,153.428040 
	C277.160034,153.106903 277.089111,153.092743 277.096527,153.128128 
	C277.381989,152.385834 277.816162,151.735748 278.833618,151.192795 
	C279.659454,150.542465 280.233063,150.055664 280.908447,149.301147 
	C282.047302,146.917053 283.786774,145.524246 286.098572,144.269623 
	C289.814209,140.346451 294.477295,138.372055 298.839417,135.399445 
	C311.955994,128.357208 325.455078,123.606125 340.179504,122.808533 
	C357.133484,121.890167 373.139587,125.279709 388.623962,132.992859 
z"/>
<path fill="#F1F4FC" opacity="1.000000" stroke="none" 
	d="
M171.735184,175.153046 
	C176.887924,175.174271 180.313034,171.535782 184.626343,170.110916 
	C211.207535,161.329956 236.640930,163.405792 261.472351,177.060883 
	C264.276550,176.762909 265.831604,177.741165 266.399292,180.635590 
	C262.297791,191.936829 260.931366,203.438354 258.398621,215.065720 
	C254.322098,216.636627 252.561325,220.003647 250.026062,223.164398 
	C247.600708,224.141830 245.552399,224.350418 243.067322,223.284958 
	C240.787842,221.950623 240.364090,219.917892 239.629547,218.093933 
	C237.232666,212.142242 232.563614,209.752151 226.030258,209.633820 
	C211.137527,209.364120 196.294403,210.769592 181.341156,209.778427 
	C170.165680,209.037674 158.826950,209.517578 147.562485,209.342819 
	C144.973892,209.302673 142.179443,209.831436 139.698303,207.394806 
	C143.763550,198.598648 150.688858,192.053467 157.014893,185.269058 
	C160.815521,181.193054 166.807892,178.968811 171.735184,175.153046 
z"/>
<path fill="#E5EDF9" opacity="1.000000" stroke="none" 
	d="
M139.169617,207.252823 
	C148.011124,207.267654 156.830109,208.162445 165.190201,207.445282 
	C179.315582,206.233582 193.235855,208.849930 207.378586,207.551086 
	C216.389694,206.723526 226.028961,205.851822 235.289383,208.746933 
	C238.220764,209.663361 239.975662,210.685715 240.720169,213.575775 
	C241.381363,216.142441 242.202408,218.667953 242.983063,221.597565 
	C246.645111,229.292221 243.924408,233.983170 236.118561,233.327332 
	C219.171127,231.903427 202.225357,232.873596 185.278931,232.752197 
	C170.316833,232.645065 155.338425,232.799484 140.379120,232.327255 
	C136.576843,232.207245 132.896759,234.123672 128.734924,232.408905 
	C129.618546,225.622589 132.475342,219.761047 135.261276,213.482391 
	C136.545593,211.230026 137.742615,209.335846 139.169617,207.252823 
z"/>
<path fill="#F7CE47" opacity="1.000000" stroke="none" 
	d="
M265.304565,181.210800 
	C264.795319,179.192490 263.234589,178.674759 261.997772,177.421356 
	C264.799255,171.104446 267.916901,165.119995 271.996765,159.348618 
	C273.036713,157.931641 274.081512,156.866074 275.252502,155.501266 
	C275.511292,155.038712 275.643921,154.875412 276.092041,154.709305 
	C278.292511,159.095139 281.704193,159.498230 285.857788,158.574936 
	C290.275269,157.592957 294.748444,157.801819 299.220093,158.515839 
	C301.337616,158.853958 303.591583,159.286392 305.644470,158.912109 
	C313.511200,157.477859 321.485809,158.253250 329.358643,158.037247 
	C334.536621,157.895142 340.187531,157.428772 345.360077,159.304352 
	C349.408234,160.772217 353.433472,159.816589 357.120453,158.733734 
	C364.410400,156.592682 371.757507,157.857132 378.835602,158.409882 
	C390.107788,159.290176 401.285065,157.258652 412.476501,158.508606 
	C414.091980,158.689026 415.467377,158.494049 416.378052,156.454117 
	C421.977936,161.951370 425.819611,168.826950 429.591766,176.163361 
	C430.970886,179.655945 432.085815,182.902740 433.216858,186.535706 
	C431.960938,189.913986 429.297974,190.206390 426.576172,190.290756 
	C410.841736,190.778595 395.104553,190.789413 379.365570,190.874756 
	C367.464355,190.939270 355.567688,189.809296 343.596802,191.048233 
	C334.938721,191.944305 326.077118,190.646866 317.291077,190.888306 
	C309.664093,191.097870 302.024109,190.974747 294.402222,191.248550 
	C290.622284,191.384323 286.775208,189.860947 282.684418,191.798309 
	C280.913361,192.672592 279.315887,192.971008 278.095062,192.061661 
	C273.707062,188.793274 268.718018,186.223633 265.304565,181.210800 
z"/>
<path fill="#196BC1" opacity="1.000000" stroke="none" 
	d="
M286.032898,144.175751 
	C284.923279,145.792618 283.686157,147.704102 281.320221,148.901581 
	C281.021210,145.945984 282.906982,144.663712 286.032898,144.175751 
z"/>
<path fill="#196BC1" opacity="1.000000" stroke="none" 
	d="
M276.527588,154.435303 
	C276.154999,154.782730 275.936737,154.915390 275.565735,155.153259 
	C274.220886,153.634338 275.238037,153.290939 276.856659,153.111115 
	C276.989197,153.459290 276.818359,153.811676 276.527588,154.435303 
z"/>
<path fill="#196BC1" opacity="1.000000" stroke="none" 
	d="
M278.789612,151.129639 
	C278.608368,151.658676 278.130920,152.288116 277.378693,153.040527 
	C277.277710,152.311081 277.656433,151.605911 278.789612,151.129639 
z"/>
<path fill="#9ECAEF" opacity="1.000000" stroke="none" 
	d="
M104.381851,375.019531 
	C100.443565,370.980164 95.416298,368.206726 92.958412,362.629395 
	C92.434753,359.825378 93.772850,358.598114 95.972305,358.025635 
	C96.615303,357.858246 97.296814,357.718597 97.950523,357.778625 
	C109.885216,358.874573 121.861542,356.988922 133.789001,358.279236 
	C137.113831,358.638947 140.443176,358.509735 143.771072,358.596985 
	C159.401505,359.006897 175.027969,358.382843 190.662079,358.455292 
	C239.930481,358.683655 289.201660,358.675354 338.471771,358.594116 
	C348.622223,358.577393 358.722046,356.874725 368.899353,357.722839 
	C372.289581,358.005371 375.336700,358.586060 375.070496,363.527771 
	C372.090332,366.773712 369.155975,369.533173 366.065002,372.595032 
	C365.908356,372.897400 365.949677,372.940887 365.948486,372.913300 
	C365.487091,373.528351 364.904877,374.047638 363.996033,374.578369 
	C363.706848,374.627686 363.635406,374.560913 363.598663,374.593201 
	C362.272614,377.323120 359.182495,377.222046 356.795380,378.837158 
	C346.451813,383.026703 336.365814,386.720337 325.576813,388.380035 
	C322.711029,388.820862 319.974731,388.676727 317.196838,388.679657 
	C260.935089,388.739502 204.672592,388.586945 148.411987,388.848816 
	C134.056351,388.915619 121.023552,385.405151 108.535675,377.973328 
	C107.245033,377.410339 106.182732,377.092987 105.232437,376.027466 
	C104.991241,375.463348 104.823761,375.248688 104.381851,375.019531 
z"/>
<path fill="#288BD9" opacity="1.000000" stroke="none" 
	d="
M356.862335,378.905823 
	C358.072845,376.703552 360.442017,375.611908 363.230499,374.639343 
	C363.434418,378.945038 359.869324,378.201843 356.862335,378.905823 
z"/>
<path fill="#288BD9" opacity="1.000000" stroke="none" 
	d="
M105.179649,376.077454 
	C106.286201,375.795807 107.081726,376.546112 108.008568,377.655640 
	C106.976036,377.892273 105.828186,377.728058 105.179649,376.077454 
z"/>
<path fill="#288BD9" opacity="1.000000" stroke="none" 
	d="
M364.026245,374.627380 
	C363.763092,373.609985 364.394958,373.162537 365.632141,372.944092 
	C365.712708,373.741425 365.326050,374.457306 364.026245,374.627380 
z"/>
<path fill="#CDE0F4" opacity="1.000000" stroke="none" 
	d="
M91.877174,276.303284 
	C97.286736,269.622589 103.600006,264.439484 110.790291,259.805603 
	C115.244804,257.060699 120.329086,256.296204 124.613770,253.043793 
	C128.459702,249.247696 132.763199,248.499893 137.638611,249.067245 
	C145.574753,249.990784 153.567322,250.079987 161.487427,249.012466 
	C166.045670,248.398087 170.405121,249.730865 174.887024,249.606888 
	C186.831177,249.276474 198.788437,249.340561 210.730164,249.142914 
	C220.960175,248.973587 231.322571,249.008484 241.565948,249.894806 
	C246.704651,250.339447 251.074036,253.520279 255.915909,256.210449 
	C257.665985,256.710449 258.643219,257.519165 259.420563,258.691071 
	C264.883423,266.927216 271.677277,274.014954 278.717987,280.878479 
	C280.186157,282.309692 281.611053,283.672455 281.331360,286.377167 
	C280.259827,289.112030 278.688751,290.803650 275.645844,291.378662 
	C268.628448,289.074188 261.934692,287.131592 255.381546,284.787323 
	C250.933304,283.196014 246.445541,282.313507 241.721161,282.392578 
	C231.091431,282.570496 220.408096,283.165375 209.846848,282.869385 
	C194.553177,282.440796 179.271469,282.626526 163.987625,282.432800 
	C142.041901,282.154663 120.089989,282.743011 98.146469,282.107544 
	C95.242889,282.023407 92.239670,283.769836 89.149673,281.352600 
	C89.834694,279.519012 90.794380,278.063049 91.877174,276.303284 
z"/>
<path fill="#DCE8F7" opacity="1.000000" stroke="none" 
	d="
M257.372070,257.860779 
	C253.898300,257.837921 251.019363,256.630707 248.570694,255.108276 
	C243.915024,252.213638 239.014801,251.917023 233.795197,251.951675 
	C214.580551,252.079285 195.340775,252.585983 176.157074,251.804886 
	C162.434692,251.246155 148.699020,253.491394 135.020508,251.193497 
	C131.651230,250.627472 128.776718,253.125824 125.196411,253.050888 
	C124.161667,245.876907 126.543182,239.359558 128.222305,232.397354 
	C132.696548,229.951416 137.312851,229.953445 141.998856,229.966446 
	C167.449570,230.037079 192.900742,230.045486 218.351410,229.967148 
	C224.516479,229.948166 230.668594,230.021408 236.739334,231.071518 
	C240.491394,231.720535 242.505081,230.969971 242.107635,226.676910 
	C241.990341,225.410019 242.577759,224.077881 242.927734,222.379578 
	C245.038895,221.997559 247.064575,222.011597 249.524384,222.036621 
	C252.970901,223.400894 252.500473,226.528580 253.107101,228.890305 
	C254.986191,236.205795 258.990295,242.829376 259.888672,250.831146 
	C259.287170,253.445282 259.919189,256.005280 257.372070,257.860779 
z"/>
<path fill="#A7CDEF" opacity="1.000000" stroke="none" 
	d="
M375.322205,363.863739 
	C373.563263,360.114716 370.387970,359.823761 366.861237,359.984161 
	C331.114288,361.609650 295.343781,360.878326 259.582001,360.986725 
	C236.332840,361.057220 213.083298,361.000000 189.833939,361.000000 
	C173.237717,361.000000 156.598877,361.732391 140.058640,360.770142 
	C126.629784,359.988831 113.212830,361.682556 99.831635,360.058197 
	C97.605492,359.787964 95.100189,359.520050 93.086708,361.980774 
	C87.510345,356.640259 84.048409,349.878204 81.341316,342.295410 
	C82.201492,338.524597 84.673096,337.966553 87.827011,337.990967 
	C107.763779,338.145294 127.703209,339.214081 147.633011,338.460602 
	C159.245392,338.021576 170.875961,338.800110 182.407654,338.289429 
	C202.352951,337.406189 222.283173,340.195129 242.202286,337.854767 
	C247.296432,337.256226 252.443176,338.675659 257.625031,338.648102 
	C280.429688,338.526764 303.250153,339.093140 326.035248,338.413666 
	C340.345795,337.986877 354.603516,338.985046 368.885345,338.599701 
	C374.204010,338.456207 379.535675,338.879913 384.841034,338.101898 
	C387.362213,337.732147 389.499725,338.331879 390.585541,341.534546 
	C389.770294,344.058136 388.777649,346.137604 387.651672,348.546692 
	C383.779663,354.004425 380.086029,359.168610 375.322205,363.863739 
z"/>
<path fill="#B6D4F1" opacity="1.000000" stroke="none" 
	d="
M78.360748,305.562195 
	C78.624367,304.545868 78.874245,303.968628 79.263351,303.195862 
	C82.167137,300.261505 85.538506,299.577026 89.341019,299.580475 
	C146.202377,299.632111 203.064331,299.442352 259.924652,299.738495 
	C267.999054,299.780548 276.183685,300.617798 284.348633,303.684662 
	C293.797791,306.684326 301.799835,312.072784 311.112732,314.256622 
	C337.282166,320.393250 363.216248,319.723053 388.926727,311.788635 
	C392.154510,310.792480 395.347870,309.830780 398.640808,312.680237 
	C399.007751,313.431091 399.073456,313.877869 399.193115,314.659576 
	C398.833954,317.071259 398.420807,319.148010 397.896179,321.603882 
	C395.616425,324.599670 392.483673,323.431122 389.807495,323.927155 
	C368.913300,327.799805 347.873260,327.414856 326.721100,326.787140 
	C314.004211,326.409698 301.682648,322.973572 289.010498,323.246887 
	C280.716644,323.425751 272.446045,322.897003 264.140808,323.080139 
	C251.548019,323.357819 238.929535,323.276306 226.311264,322.719635 
	C212.692688,322.118927 199.025330,321.729828 185.402496,323.100494 
	C182.074265,323.435394 178.751480,323.495544 175.447037,322.916748 
	C173.303650,322.541321 171.143356,322.325531 168.982101,322.444855 
	C150.530731,323.463684 132.068237,321.512726 113.638756,322.507416 
	C102.990746,323.082092 92.394844,323.072540 81.769753,322.530640 
	C80.433838,322.462524 79.100578,322.658844 77.692917,321.335388 
	C76.678520,315.913544 77.935028,310.984070 78.360748,305.562195 
z"/>
<path fill="#C0D8E8" opacity="1.000000" stroke="none" 
	d="
M399.038666,312.579285 
	C391.057983,312.293488 383.983765,315.856476 376.583008,317.506866 
	C353.166656,322.728699 329.976196,321.708069 307.038727,315.577637 
	C299.602295,313.590149 292.728729,309.496429 285.300079,306.181824 
	C281.761871,302.959412 279.570679,299.028442 276.386414,295.926941 
	C274.882172,294.461792 274.346344,292.579681 275.701355,290.269958 
	C277.170837,288.836609 278.356110,287.664551 279.769653,286.276886 
	C283.080383,283.084259 285.617676,285.500671 287.937195,287.128815 
	C296.592896,293.204529 306.072906,297.516968 316.092804,300.705566 
	C341.381348,308.753082 365.848907,306.041443 389.665894,294.985260 
	C392.329590,293.748688 395.022369,291.859558 398.276123,294.746033 
	C399.625336,300.608551 399.815552,306.379700 399.038666,312.579285 
z"/>
<path fill="#F9E04E" opacity="1.000000" stroke="none" 
	d="
M433.429688,240.667023 
	C433.680023,241.408691 433.638092,241.818878 433.569458,242.539902 
	C429.286926,255.316971 422.375214,266.224365 413.792938,276.552002 
	C408.593262,281.445526 404.028534,286.610626 397.565918,289.908997 
	C396.722656,289.801605 396.301208,289.544586 395.781738,288.824463 
	C394.727509,286.470764 393.981018,284.400055 393.329742,281.917358 
	C392.316132,279.416595 390.976349,277.423004 390.588440,274.693420 
	C387.098816,266.621002 382.769714,259.517914 376.442413,253.286896 
	C375.765167,251.221558 374.310760,250.389999 373.004150,249.366592 
	C371.462189,248.158890 370.763733,246.521057 371.391174,244.131165 
	C374.720428,238.895386 380.041382,238.744324 384.566406,239.215622 
	C399.368896,240.757355 414.118439,240.325333 428.899292,239.495270 
	C430.402252,239.410873 431.903961,239.144638 433.429688,240.667023 
z"/>
<path fill="#D4E1D7" opacity="1.000000" stroke="none" 
	d="
M396.796082,287.741791 
	C397.137177,288.415039 397.172668,288.845642 397.217285,289.600220 
	C397.707611,291.319214 398.188843,292.714264 398.669739,294.483643 
	C391.804901,295.313965 386.276886,299.468170 380.029480,301.650726 
	C357.233948,309.614502 334.494354,309.983887 311.699463,301.871735 
	C302.407501,298.564941 293.591461,294.311157 285.601624,288.444153 
	C284.146545,287.375702 282.677185,286.191315 280.360291,286.077423 
	C274.407928,279.951569 268.856567,273.805756 263.210205,267.748535 
	C260.690826,265.045837 258.368805,262.258881 257.051514,258.372955 
	C257.300262,255.954697 257.633362,253.877411 258.010681,251.410400 
	C260.483826,249.256119 261.916870,250.846725 263.525452,252.476959 
	C267.055206,256.054230 269.858582,260.194183 272.687408,264.283447 
	C281.516571,277.046722 293.841736,285.450531 307.712128,291.437012 
	C319.793671,296.651398 332.548950,299.850861 345.939728,299.666809 
	C361.709290,299.450104 376.399994,295.075623 390.513123,288.400848 
	C392.462738,287.478821 394.221680,286.002808 396.796082,287.741791 
z"/>
<path fill="#ADD0F0" opacity="1.000000" stroke="none" 
	d="
M77.327209,321.420044 
	C82.661774,319.841522 87.895172,319.666382 93.236443,320.691315 
	C96.823479,321.379608 100.497559,320.779388 104.157204,320.551514 
	C120.267380,319.548431 136.414368,319.534393 152.511230,320.567932 
	C156.748962,320.840088 160.774261,319.915192 164.871109,320.077423 
	C184.962372,320.873199 205.073395,319.027222 225.121140,320.197571 
	C237.044998,320.893707 248.955505,320.627686 260.845123,320.742493 
	C271.549438,320.845917 282.279785,320.501099 292.989502,321.024933 
	C305.250000,321.624634 317.282288,324.365784 329.633850,324.573853 
	C339.600586,324.741760 349.539246,325.353790 359.497833,324.416229 
	C362.635437,324.120819 365.807617,323.943146 368.953766,324.040680 
	C375.322205,324.238129 381.605377,323.877625 387.678528,321.823090 
	C390.835327,320.755127 393.903778,321.114990 397.394562,321.947205 
	C395.848511,328.532257 394.197723,335.179169 390.960327,341.664734 
	C388.595978,340.573151 386.373505,340.541595 383.740784,340.627167 
	C370.788696,341.047974 357.792633,341.862000 344.876953,340.188110 
	C340.122406,339.571899 335.640503,341.061066 330.978668,341.044250 
	C305.009033,340.950439 279.028381,341.440918 253.073151,340.822968 
	C238.952423,340.486725 224.824265,342.257965 210.792282,340.851685 
	C198.026062,339.572235 185.281784,340.673004 172.555161,340.429443 
	C152.701401,340.049438 132.761826,341.422455 112.880547,340.797302 
	C104.292358,340.527283 95.678001,341.450531 87.130867,340.282867 
	C85.057121,339.999542 83.776878,341.602966 81.638458,341.902039 
	C81.103485,341.753113 80.950058,341.538727 80.700363,341.151337 
	C78.205109,334.843414 76.439812,328.581482 77.327209,321.420044 
z"/>
<path fill="#F8D449" opacity="1.000000" stroke="none" 
	d="
M280.452393,192.199951 
	C281.228546,189.225510 282.903259,187.676407 285.609558,188.087341 
	C297.075409,189.828339 308.666016,188.787598 320.069183,188.435211 
	C329.309174,188.149658 338.478729,189.930756 347.815186,188.399307 
	C355.053101,187.212097 362.663940,188.493500 370.092407,188.222321 
	C378.811768,187.904007 387.497101,188.691025 396.231262,188.437698 
	C404.797852,188.189209 413.398102,188.209396 421.984558,188.036560 
	C425.485718,187.966064 428.956696,187.896179 432.799011,186.970215 
	C435.640442,192.346466 436.347321,198.152420 436.953857,203.963379 
	C437.138672,205.733810 436.877197,207.552612 437.900635,209.600372 
	C437.954834,211.064133 437.877655,212.135468 437.713867,213.601471 
	C435.206909,217.246384 431.546234,217.243240 428.114075,217.288757 
	C412.120728,217.500916 396.125061,217.435791 380.130280,217.339523 
	C366.305817,217.256317 352.476776,217.701096 338.658905,217.338959 
	C325.698364,216.999268 312.768463,218.214157 299.375732,217.675140 
	C298.644073,217.572540 298.352814,217.540131 297.627625,217.469376 
	C296.630676,217.373886 296.083221,217.249191 295.202087,216.857483 
	C289.582947,208.879868 284.782501,200.814560 280.452393,192.199951 
z"/>
<path fill="#F9DA4B" opacity="1.000000" stroke="none" 
	d="
M296.827148,216.213333 
	C308.660675,214.957504 320.195618,214.978271 331.732605,214.920609 
	C345.853241,214.850037 359.971405,214.977081 374.097412,214.707977 
	C384.356537,214.512527 394.669922,215.008545 404.958893,214.970703 
	C415.577881,214.931656 426.225708,215.604584 437.213257,213.998520 
	C437.971954,222.966705 436.572998,231.700317 433.888458,240.640182 
	C418.016754,243.100418 402.280853,243.443954 386.509796,241.832321 
	C381.611359,241.331757 376.887299,241.702866 372.378418,244.823807 
	C368.754028,246.507599 366.767792,243.939713 364.610443,242.385132 
	C353.668732,234.500443 341.650757,229.137711 328.339203,226.935852 
	C320.943787,225.712555 313.438171,226.200455 305.998260,226.614853 
	C299.202698,226.993378 295.749390,223.534286 296.827148,216.213333 
z"/>
<path fill="#C0D9F2" opacity="1.000000" stroke="none" 
	d="
M275.674438,289.850464 
	C276.418182,292.543915 277.787842,294.565002 279.699371,296.156433 
	C282.592316,298.565033 284.299103,301.571350 284.926331,305.632568 
	C275.179779,303.261353 265.147217,302.022125 254.973831,302.015076 
	C209.202362,301.983337 163.429474,301.807098 117.660255,302.129089 
	C105.234108,302.216553 92.738075,300.700714 79.877151,302.977783 
	C79.995285,297.106659 82.616653,292.065796 85.795822,287.192566 
	C86.931190,285.452209 87.467819,283.321289 88.576370,281.171814 
	C94.545570,279.304199 100.322990,279.912842 106.115303,279.939056 
	C135.391144,280.071411 164.667892,279.999969 193.944336,280.000000 
	C208.866501,280.000031 223.794327,280.254791 238.709137,279.923859 
	C251.962753,279.629791 263.668701,284.484100 275.674438,289.850464 
z"/>
<path fill="#F4F0BF" opacity="1.000000" stroke="none" 
	d="
M297.107208,215.964691 
	C297.226715,216.280609 297.241425,216.632080 297.381104,216.923691 
	C300.964081,224.403366 300.982391,224.592896 309.131805,223.907043 
	C332.912323,221.905670 353.408783,229.568542 371.759308,244.829620 
	C374.012115,247.103745 375.962708,249.221481 378.077454,251.636902 
	C376.084747,255.304108 372.349030,254.970245 369.268066,255.092926 
	C358.141785,255.536011 346.979523,255.991104 335.871002,254.792023 
	C331.817200,254.354446 327.931152,255.407547 323.940430,255.397079 
	C314.623383,255.372650 305.301270,255.211243 295.990082,255.456787 
	C289.185516,255.636215 282.694305,255.284470 277.050293,250.054474 
	C273.633698,249.375168 272.502686,247.119858 271.434082,244.584930 
	C268.894318,238.560043 266.654694,232.205933 259.020233,229.869827 
	C256.420258,225.232315 254.499130,220.774521 256.677979,215.370911 
	C257.378052,204.849777 259.600708,194.964676 262.294891,185.179489 
	C262.669983,183.817169 263.884796,182.686050 264.922485,181.147552 
	C271.557983,182.313004 275.144348,187.771835 280.297913,191.639709 
	C287.513702,198.141144 291.114136,206.698471 296.098267,214.736084 
	C296.340363,215.228317 296.443390,215.391464 296.783325,215.720825 
	C297.020264,215.887024 297.060638,215.972366 297.107208,215.964691 
z"/>
<path fill="#DEE5CD" opacity="1.000000" stroke="none" 
	d="
M256.569214,215.030441 
	C257.940826,219.447876 258.906830,223.846207 259.963440,228.628235 
	C261.569366,230.580978 262.876801,232.250885 263.365082,234.469543 
	C266.928497,250.661774 277.969421,261.729736 289.535889,272.381714 
	C304.106903,285.800659 321.765137,292.224274 341.166840,293.385925 
	C356.474518,294.302460 371.204865,291.020630 385.002899,283.916351 
	C387.940155,282.404083 390.543030,279.431030 394.784851,280.749329 
	C395.425323,283.179047 397.304260,284.868134 397.121674,287.606171 
	C389.013123,291.841431 380.889374,295.580658 372.244690,298.106232 
	C352.243744,303.949585 332.582825,303.082611 312.973114,296.059723 
	C293.327637,289.023956 277.621735,277.225616 266.319855,259.595001 
	C264.279755,256.412476 261.819550,253.462341 258.377533,251.102631 
	C255.803986,244.244202 253.670898,237.425156 251.242661,230.712875 
	C250.307510,228.127899 249.972260,225.572525 249.976639,222.472717 
	C249.598007,217.560226 250.911591,214.549164 256.569214,215.030441 
z"/>
<path fill="#F0EDBE" opacity="1.000000" stroke="none" 
	d="
M275.695923,248.287994 
	C293.446533,257.063416 311.992035,252.297577 330.131500,252.118744 
	C334.499847,252.075684 338.667358,253.132767 343.000580,253.053543 
	C354.444885,252.844391 365.909821,253.422760 377.778137,251.949341 
	C384.896118,257.690186 389.221588,264.979584 392.258545,273.520264 
	C391.122559,276.956268 388.419769,278.380524 385.768219,279.760162 
	C370.477478,287.716064 354.037170,289.400452 337.222229,287.927338 
	C327.148926,287.044830 317.166473,285.537170 307.867798,280.784210 
	C295.210815,274.314667 283.852814,266.525299 276.258270,254.143753 
	C275.178772,252.383865 274.230042,250.655411 275.695923,248.287994 
z"/>
<path fill="#E8E9C4" opacity="1.000000" stroke="none" 
	d="
M275.767303,247.749878 
	C279.089478,256.651764 285.449677,262.771423 292.238922,268.400391 
	C300.386841,275.155823 309.801697,280.292847 319.884003,282.810150 
	C331.226288,285.641998 343.002533,286.571930 354.934540,285.680756 
	C368.199219,284.690033 380.077728,280.229248 391.929993,273.979248 
	C393.242065,276.012848 394.179382,278.133087 395.103333,280.618103 
	C379.562958,290.920868 362.556305,296.331879 344.149902,295.882996 
	C321.551880,295.331909 301.540344,287.685669 285.160706,271.642792 
	C280.767334,267.339752 276.559875,262.875702 272.573547,258.162872 
	C265.575470,249.889267 261.606201,240.423599 260.048218,229.416702 
	C265.162750,229.756744 269.329376,231.348053 270.816498,237.248749 
	C271.719666,240.832367 273.915802,244.090103 275.767303,247.749878 
z"/>
<path fill="#F9DA4B" opacity="1.000000" stroke="none" 
	d="
M296.900024,215.740326 
	C296.728333,215.849106 296.499115,215.708786 296.284973,215.265625 
	C296.431641,215.227493 296.612457,215.403656 296.900024,215.740326 
z"/>
</svg>